<svg width="64" height="64" viewBox="0 0 64 64" fill="none" xmlns="http://www.w3.org/2000/svg">
<path d="M32.0013 46.5165C32.0013 46.5165 47.9283 38.8797 47.9283 25.0763C47.9283 16.28 40.7976 9.1492 32.0013 9.1492C23.205 9.1492 16.0742 16.28 16.0742 25.0763C16.0742 38.8797 32.0013 46.5165 32.0013 46.5165Z" stroke="#00A870" stroke-width="3" stroke-linecap="square"/>
<path d="M32.0017 31.4459C35.5202 31.4459 38.3725 28.5935 38.3725 25.075C38.3725 21.5565 35.5202 18.7042 32.0017 18.7042C28.4832 18.7042 25.6309 21.5565 25.6309 25.075C25.6309 28.5935 28.4832 31.4459 32.0017 31.4459Z" stroke="#00A870" stroke-width="3" stroke-linecap="square"/>
<path d="M22.899 41.0033H17.2107L12.6602 53.5174H51.3402L46.7896 41.0033H41.1013" stroke="#00A870" stroke-width="3" stroke-linecap="square"/>
</svg>
